<svg width="16" height="17" viewBox="0 0 16 17" fill="none" xmlns="http://www.w3.org/2000/svg">
<path fill-rule="evenodd" clip-rule="evenodd" d="M15.2982 2.65842C15.7544 2.20342 15.7544 1.46375 15.2982 1.00875C14.8432 0.552584 14.1047 0.552584 13.6486 1.00875L7.90391 6.75342L2.15808 1.00875C1.70308 0.552584 0.963415 0.552584 0.508415 1.00875C0.0522486 1.46375 0.0522486 2.20342 0.508415 2.65842L6.25308 8.40425L0.508415 14.1489C0.0522486 14.6051 0.0522486 15.3436 0.508415 15.7986C0.963415 16.2548 1.70308 16.2548 2.15808 15.7986L7.90391 10.0539L13.6486 15.7986C14.1047 16.2548 14.8432 16.2548 15.2982 15.7986C15.7544 15.3436 15.7544 14.6051 15.2982 14.1489L9.55358 8.40425L15.2982 2.65842Z" fill="#6A6E72"/>
</svg>
